<?xml version="1.0" encoding="UTF-8" standalone="no"?>
<!-- Created with Inkscape (http://www.inkscape.org/) -->

<svg
   xmlns:dc="http://purl.org/dc/elements/1.1/"
   xmlns:cc="http://creativecommons.org/ns#"
   xmlns:rdf="http://www.w3.org/1999/02/22-rdf-syntax-ns#"
   xmlns:svg="http://www.w3.org/2000/svg"
   xmlns="http://www.w3.org/2000/svg"
   xmlns:sodipodi="http://sodipodi.sourceforge.net/DTD/sodipodi-0.dtd"
   xmlns:inkscape="http://www.inkscape.org/namespaces/inkscape"
   width="103.79055mm"
   height="140.1066mm"
   viewBox="0 0 103.79055 140.1066"
   version="1.1"
   id="svg8"
   inkscape:version="0.92.4 (5da689c313, 2019-01-14)"
   sodipodi:docname="drawing.svg">
  <defs
     id="defs2" />
  <sodipodi:namedview
     id="base"
     pagecolor="#ffffff"
     bordercolor="#666666"
     borderopacity="1.0"
     inkscape:pageopacity="0.0"
     inkscape:pageshadow="2"
     inkscape:zoom="1.4"
     inkscape:cx="-74.555903"
     inkscape:cy="326.75457"
     inkscape:document-units="mm"
     inkscape:current-layer="layer1"
     showgrid="false"
     inkscape:window-width="2560"
     inkscape:window-height="1377"
     inkscape:window-x="-8"
     inkscape:window-y="-8"
     inkscape:window-maximized="1" />
  <metadata
     id="metadata5">
    <rdf:RDF>
      <cc:Work
         rdf:about="">
        <dc:format>image/svg+xml</dc:format>
        <dc:type
           rdf:resource="http://purl.org/dc/dcmitype/StillImage" />
        <dc:title />
      </cc:Work>
    </rdf:RDF>
  </metadata>
  <g
     inkscape:label="Layer 1"
     inkscape:groupmode="layer"
     id="layer1"
     transform="translate(-65.440506,-67.087719)">
    <path
       inkscape:connector-curvature="0"
       style="clip-rule:evenodd;fill:#f6d2a2;fill-rule:evenodd;stroke:#000000;stroke-width:0.79374999;stroke-linecap:round"
       d="m 66.816967,143.51689 c 0.202142,4.16745 4.365361,2.23917 6.251046,0.93636 1.789906,-1.23693 2.313252,-0.20875 2.470414,-2.6498 0.102923,-1.60443 0.287867,-3.20887 0.19685,-4.81965 -2.706687,-0.24527 -5.650706,0.39926 -7.869766,2.01136 -1.143,0.83053 -3.286125,3.48139 -1.048544,4.52173"
       id="path2" />
    <path
       inkscape:connector-curvature="0"
       style="clip-rule:evenodd;fill:#c6b198;fill-rule:evenodd;stroke:#000000;stroke-width:0.79374999;stroke-linecap:round"
       d="m 66.816967,143.51689 c 0.605896,-0.22542 1.24804,-0.3855 1.659202,-0.93345"
       id="path4" />
    <path
       inkscape:connector-curvature="0"
       style="clip-rule:evenodd;fill:#6ad7e5;fill-rule:evenodd;stroke:#000000;stroke-width:0.8212558;stroke-linecap:round"
       d="M 76.922086,93.85485 C 59.989206,89.330017 72.580257,68.85992 86.177784,77.279537 Z"
       id="path6" />
    <path
       inkscape:connector-curvature="0"
       style="clip-rule:evenodd;fill:#6ad7e5;fill-rule:evenodd;stroke:#000000;stroke-width:0.80487561;stroke-linecap:round"
       d="m 147.31936,75.456804 c 12.62777,-9.120012 24.03898,11.456397 9.36307,16.633554 z"
       id="path8" />
    <path
       inkscape:connector-curvature="0"
       style="clip-rule:evenodd;fill:#f6d2a2;fill-rule:evenodd;stroke:#000000;stroke-width:0.79374999;stroke-linecap:round"
       d="m 149.5064,194.2772 c 3.20754,1.98464 9.07044,7.98566 4.25873,10.89555 -4.62333,4.23306 -7.21095,-4.64635 -11.26887,-5.87667 1.74758,-2.37331 3.96267,-4.53733 7.01014,-5.01888 z"
       id="path10" />
    <path
       inkscape:connector-curvature="0"
       style="clip-rule:evenodd;fill:none;fill-rule:evenodd;stroke:#000000;stroke-width:0.8512882;stroke-linecap:round"
       d="m 153.73634,205.14374 c -0.85127,-1.36712 -1.13703,-2.96273 -2.55824,-4.06463"
       id="path12" />
    <path
       inkscape:connector-curvature="0"
       style="clip-rule:evenodd;fill:#f6d2a2;fill-rule:evenodd;stroke:#000000;stroke-width:0.79374999;stroke-linecap:round"
       d="m 92.920569,200.45424 c -3.764756,0.58262 -5.883804,3.97907 -9.022291,5.70389 -2.957513,1.76345 -4.088871,-0.56462 -4.355307,-1.03717 -0.46355,-0.2114 -0.424656,0.19685 -1.140089,-0.52361 -2.741613,-4.32699 2.856706,-7.48982 5.771885,-9.6393 4.060296,-0.82073 6.604794,2.69928 8.745802,5.49619 z"
       id="path14" />
    <path
       inkscape:connector-curvature="0"
       style="clip-rule:evenodd;fill:none;fill-rule:evenodd;stroke:#000000;stroke-width:0.85292906;stroke-linecap:round"
       d="m 79.571977,205.09135 c 0.185096,-1.47531 1.872821,-2.46326 2.676726,-3.71063"
       id="path16" />
    <path
       inkscape:connector-curvature="0"
       style="clip-rule:evenodd;fill-rule:evenodd;stroke-width:0.26458332"
       d="m 77.29269,88.076024 c -2.10476,-1.113367 -3.648868,-2.62546 -2.361406,-5.059892 1.191948,-2.25372 3.406246,-2.008981 5.511271,-0.895614 z"
       id="path18" />
    <path
       inkscape:connector-curvature="0"
       style="clip-rule:evenodd;fill-rule:evenodd;stroke-width:0.28444839"
       d="m 153.65597,86.148345 c 2.30427,-1.175413 3.99474,-2.771775 2.58524,-5.341876 -1.30493,-2.37932 -3.72911,-2.12094 -6.03366,-0.945527 z"
       id="path20" />
    <path
       inkscape:connector-curvature="0"
       style="clip-rule:evenodd;fill:#f6d2a2;fill-rule:evenodd;stroke:#000000;stroke-width:0.81152225;stroke-linecap:round"
       d="m 167.81397,142.95621 c -0.2087,4.21924 -4.50703,2.26699 -6.4539,0.948 -1.848,-1.25229 -2.38833,-0.21135 -2.55059,-2.68273 -0.10626,-1.62437 -0.29722,-3.24873 -0.20324,-4.87954 2.79453,-0.24832 5.83409,0.40422 8.12516,2.03636 1.17983,0.84084 3.39278,3.52464 1.08257,4.57791"
       id="path22" />
    <path
       inkscape:connector-curvature="0"
       style="clip-rule:evenodd;fill:#c6b198;fill-rule:evenodd;stroke:#000000;stroke-width:0.85593081;stroke-linecap:round"
       d="m 167.81397,142.95621 c -0.7554,-0.21024 -1.55599,-0.35953 -2.06862,-0.8706"
       id="path24" />
    <g
       transform="matrix(0.26459077,0,0,0.26295969,64.001884,64.031555)"
       id="g28">
      <path
         d="m 195.512,13.124 c 60.365,0 116.953,8.633 146.452,66.629 26.478,65.006 17.062,135.104 21.1,203.806 3.468,58.992 11.157,127.145 -16.21,181.812 -28.79,57.514 -100.73,71.982 -160,69.863 C 140.299,533.568 84.06,518.38 57.785,475.845 26.959,425.945 41.553,351.747 43.792,296.223 46.444,230.452 25.977,164.481 47.584,100.122 69.999,33.359 130.451,18.271 195.512,13.124"
         id="path26"
         inkscape:connector-curvature="0"
         style="clip-rule:evenodd;fill:#6ad7e5;fill-rule:evenodd;stroke:#000000;stroke-width:3;stroke-linecap:round" />
    </g>
    <path
       inkscape:connector-curvature="0"
       style="clip-rule:evenodd;fill:#ffffff;fill-rule:evenodd;stroke:#000000;stroke-width:0.77749008;stroke-linecap:round"
       d="m 118.08432,88.88347 c 2.91759,16.72846 30.64097,12.30545 26.65895,-4.566121 -3.57068,-15.129243 -27.62862,-10.941486 -26.65895,4.566121"
       id="path30" />
    <path
       inkscape:connector-curvature="0"
       style="clip-rule:evenodd;fill:#ffffff;fill-rule:evenodd;stroke:#000000;stroke-width:0.74919498;stroke-linecap:round"
       d="M 85.993462,91.584819 C 89.722985,106.15173 113.03868,102.42222 112.15986,87.810171 111.10687,70.309966 82.427754,73.686779 85.993462,91.584819"
       id="path32" />
    <path
       inkscape:connector-curvature="0"
       style="clip-rule:evenodd;fill:#ffffff;fill-rule:evenodd;stroke:#000000;stroke-width:0.80795765;stroke-linecap:round"
       d="m 121.83972,108.98509 c 0.0122,2.24547 0.49239,4.76647 0.0825,7.15532 -0.55325,1.0834 -1.63857,1.19799 -2.57413,1.6358 -1.29382,-0.21028 -2.38178,-1.09054 -2.90063,-2.34445 -0.33205,-2.7266 0.12382,-5.36656 0.2077,-8.09426 z"
       id="path34" />
    <g
       transform="matrix(0.28688619,0,0,0.26458333,61.940485,64.011452)"
       id="g40">
      <ellipse
         cx="107.324"
         cy="95.403999"
         rx="14.829"
         ry="16.062"
         id="ellipse36"
         style="clip-rule:evenodd;fill-rule:evenodd" />
      <ellipse
         cx="114.069"
         cy="99.028999"
         rx="3.4960001"
         ry="4.0819998"
         id="ellipse38"
         style="clip-rule:evenodd;fill:#ffffff;fill-rule:evenodd" />
    </g>
    <g
       transform="matrix(0.28078379,0,0,0.26458333,60.488066,64.011452)"
       id="g46">
      <ellipse
         cx="231.571"
         cy="91.403999"
         rx="14.582"
         ry="16.062"
         id="ellipse42"
         style="clip-rule:evenodd;fill-rule:evenodd" />
      <ellipse
         cx="238.20399"
         cy="95.028999"
         rx="3.438"
         ry="4.0819998"
         id="ellipse44"
         style="clip-rule:evenodd;fill:#ffffff;fill-rule:evenodd" />
    </g>
    <path
       inkscape:connector-curvature="0"
       style="clip-rule:evenodd;fill:#ffffff;fill-rule:evenodd;stroke:#000000;stroke-width:0.82640719;stroke-linecap:round"
       d="m 110.62747,108.81647 c -1.71186,4.49707 0.95462,13.48977 5.59938,6.85688 -0.33206,-2.85255 0.12382,-5.61446 0.20769,-8.46814 z"
       id="path48" />
    <g
       transform="matrix(0.27044236,0,0,0.26458333,62.597136,64.011452)"
       id="g54">
      <path
         d="m 178.431,138.673 c -12.059,1.028 -21.916,15.366 -15.646,26.709 8.303,15.024 26.836,-1.329 38.379,0.203 13.285,0.272 24.17,14.047 34.84,2.49 11.867,-12.854 -5.109,-25.373 -18.377,-30.97 z"
         id="path50"
         inkscape:connector-curvature="0"
         style="clip-rule:evenodd;fill:#f6d2a2;fill-rule:evenodd;stroke:#231f20;stroke-width:3;stroke-linecap:round" />
      <path
         d="m 176.913,138.045 c -0.893,-20.891 38.938,-23.503 43.642,-6.016 4.692,17.446 -41.681,21.498 -43.642,6.016 -1.565,-12.363 0,0 0,0 z"
         id="path52"
         inkscape:connector-curvature="0"
         style="clip-rule:evenodd;fill-rule:evenodd" />
    </g>
  </g>
</svg>
